<svg xmlns="http://www.w3.org/2000/svg" viewBox="0 0 125.3 117.07"><title>Asset 59-1000181112341111</title><g style="isolation:isolate"><g id="Layer_2" data-name="Layer 2"><g id="Artwork"><g style="opacity:0.2;mix-blend-mode:multiply"><path d="M125.3,60.61a16.23,16.23,0,0,1-2.17,8.11L99.92,108.93a16.29,16.29,0,0,1-14,8.11H39.43a16.29,16.29,0,0,1-14-8.11L2.17,68.72a16.27,16.27,0,0,1,0-16.23L25.38,12.28A16.29,16.29,0,0,1,39.43,4.17H85.87a16.29,16.29,0,0,1,14,8.11l23.21,40.21A16.24,16.24,0,0,1,125.3,60.61ZM3,60.61a13.28,13.28,0,0,0,1.77,6.63l23.21,40.21a13.33,13.33,0,0,0,11.49,6.64H85.87a13.33,13.33,0,0,0,11.49-6.64l23.21-40.21a13.32,13.32,0,0,0,0-13.27L97.36,13.76A13.32,13.32,0,0,0,85.87,7.13H39.43a13.32,13.32,0,0,0-11.49,6.63L4.73,54A13.29,13.29,0,0,0,3,60.61Z"></path><path d="M125.3,60.61a16.43,16.43,0,0,1-2.2,8.22l-23.1,40a16.5,16.5,0,0,1-14.25,8.22H39.55a16.5,16.5,0,0,1-14.25-8.22l-23.1-40a16.49,16.49,0,0,1,0-16.45l23.1-40A16.5,16.5,0,0,1,39.55,4.14h46.2A16.5,16.5,0,0,1,100,12.36l23.1,40A16.47,16.47,0,0,1,125.3,60.61ZM3,60.61a13.48,13.48,0,0,0,1.8,6.74l23.1,40a13.54,13.54,0,0,0,11.69,6.75h46.2a13.54,13.54,0,0,0,11.69-6.75l23.1-40a13.54,13.54,0,0,0,0-13.49l-23.1-40A13.53,13.53,0,0,0,85.75,7.1H39.55a13.53,13.53,0,0,0-11.69,6.74l-23.1,40A13.49,13.49,0,0,0,3,60.61Z"></path></g><path d="M125.3,56.47a16.23,16.23,0,0,1-2.17,8.11L99.92,104.79a16.29,16.29,0,0,1-14,8.11H39.43a16.29,16.29,0,0,1-14-8.11L2.17,64.58a16.27,16.27,0,0,1,0-16.23L25.38,8.14A16.29,16.29,0,0,1,39.43,0H85.87a16.29,16.29,0,0,1,14,8.11l23.21,40.21A16.24,16.24,0,0,1,125.3,56.47ZM3,56.47A13.28,13.28,0,0,0,4.73,63.1l23.21,40.21A13.33,13.33,0,0,0,39.43,110H85.87a13.33,13.33,0,0,0,11.49-6.64L120.57,63.1a13.32,13.32,0,0,0,0-13.27L97.36,9.62A13.32,13.32,0,0,0,85.87,3H39.43A13.32,13.32,0,0,0,27.94,9.62L4.73,49.83A13.29,13.29,0,0,0,3,56.47Z" style="fill:#fff"></path><g style="opacity:0.42;mix-blend-mode:overlay"><path d="M125.3,56.47a16.43,16.43,0,0,1-2.2,8.22l-23.1,40a16.5,16.5,0,0,1-14.25,8.22H39.55a16.5,16.5,0,0,1-14.25-8.22l-23.1-40a16.49,16.49,0,0,1,0-16.45l23.1-40A16.5,16.5,0,0,1,39.55,0h46.2A16.5,16.5,0,0,1,100,8.22l23.1,40A16.47,16.47,0,0,1,125.3,56.47ZM3,56.47a13.48,13.48,0,0,0,1.8,6.74l23.1,40A13.54,13.54,0,0,0,39.55,110h46.2a13.54,13.54,0,0,0,11.69-6.75l23.1-40a13.54,13.54,0,0,0,0-13.49l-23.1-40A13.53,13.53,0,0,0,85.75,3H39.55A13.53,13.53,0,0,0,27.86,9.7l-23.1,40A13.49,13.49,0,0,0,3,56.47Z" style="fill:#fff"></path></g><path d="M90.72,83.68l-2.8-16.42a4.68,4.68,0,0,0-3.28-3.71l-7.56-2.28a8.44,8.44,0,0,0-5.86-7.33c.24-.26.47-.53.67-.79a14.75,14.75,0,0,0,3-6.53h.58a2.75,2.75,0,0,0,2.75-2.75V42.46a2.79,2.79,0,0,0-1.42-2.41V36.66a.93.93,0,1,0-1.86,0v3.81a5.56,5.56,0,0,0-1.24.36l-.13.06-.29.14V33.55a3.76,3.76,0,0,0-3.75-3.75H67a3.87,3.87,0,0,0-2.43.87l-.25.21a2.61,2.61,0,0,1-3.28,0l-.25-.21a3.87,3.87,0,0,0-2.43-.87H55.76A3.75,3.75,0,0,0,52,33.55V41l-.3-.14a.38.38,0,0,0-.13-.06,5.42,5.42,0,0,0-1.24-.36V30.84a5.46,5.46,0,0,1,5.45-5.45H69.5A5.46,5.46,0,0,1,75,30.84V32.3a.93.93,0,1,0,1.86,0V30.84a7.32,7.32,0,0,0-7.31-7.31H55.8a7.31,7.31,0,0,0-7.3,7.31v9.21a2.78,2.78,0,0,0-1.43,2.41v1.41a2.75,2.75,0,0,0,2.75,2.75h.58a14.75,14.75,0,0,0,3,6.53c.21.26.43.53.67.79a8.46,8.46,0,0,0-5.86,7.33l-7.56,2.28a4.69,4.69,0,0,0-3.28,3.71l-1.14,6.67A.94.94,0,0,0,37,75a.93.93,0,0,0,1.07-.76l1.14-6.67a2.84,2.84,0,0,1,2-2.24l7-2.11v1.83A4.66,4.66,0,0,0,44.66,68a4.5,4.5,0,0,0-.27,1.26l-.68,8.68a2.34,2.34,0,0,0,.62,1.78,2.37,2.37,0,0,0,1.73.76h1.16a.93.93,0,1,0,0-1.86H46.06a.5.5,0,0,1-.5-.54l.68-8.68a2.78,2.78,0,0,1,.16-.76A2.82,2.82,0,0,1,49,66.83h.17a2.79,2.79,0,0,1,2.6,1.66,2.69,2.69,0,0,1,.21.89l.68,8.68a.5.5,0,0,1-.5.54H51a.93.93,0,0,0,0,1.86h1.16a2.37,2.37,0,0,0,1.73-.76,2.34,2.34,0,0,0,.62-1.78l-.67-8.68a4.87,4.87,0,0,0-.36-1.47,4.6,4.6,0,0,0-3.46-2.72V62.66l3.19-1c.29.62.86,1.94,2,4.79S57.82,73,59.19,76.61l0,.09c.92,2.39,1.8,4.74,2.56,6.76a.93.93,0,0,0,1.74,0c.76-2,1.64-4.37,2.56-6.76l0-.09c1.37-3.57,2.8-7.26,3.94-10.13s1.72-4.17,2-4.79l3.19,1v5.48a4.79,4.79,0,1,0,1.86,0V63.22l7,2.11a2.83,2.83,0,0,1,2,2.24L88.89,84a.89.89,0,0,1-.2.75.92.92,0,0,1-.71.33H37.32A.92.92,0,0,1,36.41,84l.92-5.42a.93.93,0,1,0-1.83-.31l-.92,5.42a2.76,2.76,0,0,0,2.74,3.24H88a2.81,2.81,0,0,0,2.13-1A2.76,2.76,0,0,0,90.72,83.68ZM75,42.36a4.15,4.15,0,0,1,.9-.12,1,1,0,0,0,.45-.11,1,1,0,0,1,.07.33v1.41a.9.9,0,0,1-.9.9H75V42.36ZM50.34,44.77h-.52a.89.89,0,0,1-.89-.9V42.46a1,1,0,0,1,.06-.33,1,1,0,0,0,.45.11,4.15,4.15,0,0,1,.9.12v2.41Zm1.86,1V43.37a1.31,1.31,0,0,0,.87,0,1.28,1.28,0,0,0,.8-1.2V33.55a1.89,1.89,0,0,1,1.89-1.89h2.57a2,2,0,0,1,1.25.45l.25.2a4.44,4.44,0,0,0,5.64,0l.25-.2A2,2,0,0,1,67,31.66h2.57a1.89,1.89,0,0,1,1.89,1.89v8.57a1.28,1.28,0,0,0,.8,1.2,1.24,1.24,0,0,0,.5.1,1.14,1.14,0,0,0,.37-.05v2.44a13,13,0,0,1-4.9,8.4l-.08.06a9.05,9.05,0,0,1-10.94,0l-.08-.06A12.29,12.29,0,0,1,54.87,52,11.94,11.94,0,0,1,52.2,45.81Zm16.53,15-6.08,4.54-6.08-4.54a4.43,4.43,0,0,0,.94-2.63v-1.5a10.89,10.89,0,0,0,10.28,0v1.5A4.43,4.43,0,0,0,68.73,60.81ZM55,59.77a2.55,2.55,0,0,0-1.57-.08l-.06,0-3.21,1a6.59,6.59,0,0,1,5.47-5.2v2.7A2.47,2.47,0,0,1,55,59.77Zm2.52,7.45h0a3.65,3.65,0,0,0-.14-.35l0-.07c0-.11-.09-.22-.13-.33v0l-.4-1,0-.07-.11-.27,0-.1-.1-.25,0-.08-.18-.44-.05-.12L56.22,64l-.07-.18,0-.07,0-.05c-.1-.26-.21-.5-.3-.73h0a2.75,2.75,0,0,1-.15-.36l-.08-.17,5.23,3.91-2.18.93h0l-.91.39Zm2.21,5.69c-.18-.48-.36-1-.55-1.44-.29-.74-.57-1.45-.83-2.13l.35-.15,1.41,1.65Zm2.92,7.54a.78.78,0,0,0-.1-.15c-.42-1.11-1-2.52-1.54-4.06l.87-4.74h1.5l.87,4.74C63.65,77.86,63.1,79.32,62.67,80.45Zm1.08-10.81h-2.2l-1-1.21,2.14-.91,2.14.91Zm2.35,1.83c-.19.48-.37,1-.55,1.44l-.38-2.07,1.41-1.65.35.15C66.67,70,66.39,70.73,66.1,71.47Zm3.56-8.92-.15.34,0,0c0,.11-.09.23-.14.35v0c0,.1-.09.21-.14.32l0,.06,0,.08-.07.15-.07.19,0,.06c-.06.16-.13.32-.2.49l0,.08-.1.25,0,.1-.11.27,0,.07c-.13.32-.26.64-.39,1l0,0c0,.11-.08.22-.13.33l0,.07a3.65,3.65,0,0,0-.14.35h0l-.15.39-.91-.39h0l-2.19-.93,5.23-3.91C69.71,62.44,69.68,62.49,69.66,62.55Zm2.25-2.84h0a2.53,2.53,0,0,0-1.63.06,2.47,2.47,0,0,1-.63-1.59V55.47a6.54,6.54,0,0,1,5.47,5.21Zm7.21,13.14a3,3,0,1,1-3-2.94A2.95,2.95,0,0,1,79.12,72.85Z" style="fill:#fff"></path></g></g></g></svg>