<svg xmlns="http://www.w3.org/2000/svg" viewBox="0 0 125.3 117.07"><title>Asset 57-1000181112341111</title><g style="isolation:isolate"><g id="Layer_2" data-name="Layer 2"><g id="Artwork"><g style="opacity:0.2;mix-blend-mode:multiply"><path d="M125.3,60.61a16.23,16.23,0,0,1-2.17,8.11L99.92,108.93a16.29,16.29,0,0,1-14,8.11H39.43a16.29,16.29,0,0,1-14-8.11L2.17,68.72a16.27,16.27,0,0,1,0-16.23L25.38,12.28A16.29,16.29,0,0,1,39.43,4.17H85.87a16.29,16.29,0,0,1,14,8.11l23.21,40.21A16.24,16.24,0,0,1,125.3,60.61ZM3,60.61a13.28,13.28,0,0,0,1.77,6.63l23.21,40.21a13.33,13.33,0,0,0,11.49,6.64H85.87a13.33,13.33,0,0,0,11.49-6.64l23.21-40.21a13.32,13.32,0,0,0,0-13.27L97.36,13.76A13.32,13.32,0,0,0,85.87,7.13H39.43a13.32,13.32,0,0,0-11.49,6.63L4.73,54A13.29,13.29,0,0,0,3,60.61Z"></path><path d="M125.3,60.61a16.43,16.43,0,0,1-2.2,8.22l-23.1,40a16.5,16.5,0,0,1-14.25,8.22H39.55a16.5,16.5,0,0,1-14.25-8.22l-23.1-40a16.49,16.49,0,0,1,0-16.45l23.1-40A16.5,16.5,0,0,1,39.55,4.14h46.2A16.5,16.5,0,0,1,100,12.36l23.1,40A16.47,16.47,0,0,1,125.3,60.61ZM3,60.61a13.48,13.48,0,0,0,1.8,6.74l23.1,40a13.54,13.54,0,0,0,11.69,6.75h46.2a13.54,13.54,0,0,0,11.69-6.75l23.1-40a13.54,13.54,0,0,0,0-13.49l-23.1-40A13.53,13.53,0,0,0,85.75,7.1H39.55a13.53,13.53,0,0,0-11.69,6.74l-23.1,40A13.49,13.49,0,0,0,3,60.61Z"></path></g><path d="M125.3,56.47a16.23,16.23,0,0,1-2.17,8.11L99.92,104.79a16.29,16.29,0,0,1-14,8.11H39.43a16.29,16.29,0,0,1-14-8.11L2.17,64.58a16.27,16.27,0,0,1,0-16.23L25.38,8.14A16.29,16.29,0,0,1,39.43,0H85.87a16.29,16.29,0,0,1,14,8.11l23.21,40.21A16.24,16.24,0,0,1,125.3,56.47ZM3,56.47A13.28,13.28,0,0,0,4.73,63.1l23.21,40.21A13.33,13.33,0,0,0,39.43,110H85.87a13.33,13.33,0,0,0,11.49-6.64L120.57,63.1a13.32,13.32,0,0,0,0-13.27L97.36,9.62A13.32,13.32,0,0,0,85.87,3H39.43A13.32,13.32,0,0,0,27.94,9.62L4.73,49.83A13.29,13.29,0,0,0,3,56.47Z" style="fill:#fff"></path><g style="opacity:0.42;mix-blend-mode:overlay"><path d="M125.3,56.47a16.43,16.43,0,0,1-2.2,8.22l-23.1,40a16.5,16.5,0,0,1-14.25,8.22H39.55a16.5,16.5,0,0,1-14.25-8.22l-23.1-40a16.49,16.49,0,0,1,0-16.45l23.1-40A16.5,16.5,0,0,1,39.55,0h46.2A16.5,16.5,0,0,1,100,8.22l23.1,40A16.47,16.47,0,0,1,125.3,56.47ZM3,56.47a13.48,13.48,0,0,0,1.8,6.74l23.1,40A13.54,13.54,0,0,0,39.55,110h46.2a13.54,13.54,0,0,0,11.69-6.75l23.1-40a13.54,13.54,0,0,0,0-13.49l-23.1-40A13.53,13.53,0,0,0,85.75,3H39.55A13.53,13.53,0,0,0,27.86,9.7l-23.1,40A13.49,13.49,0,0,0,3,56.47Z" style="fill:#fff"></path></g><path d="M34.49,44.34a.7.7,0,0,0-.71.7v38a.7.7,0,0,0,.71.7H89.64a.7.7,0,0,0,.7-.7V45a.7.7,0,0,0-.7-.7H77V27.93a.71.71,0,0,0-.7-.71H47.8a.7.7,0,0,0-.7.71V44.34Zm54.45,38H77V45.75H88.94Zm-13.32,0H66.57v-10h1.9V71H55.65v1.41h1.91v10H48.5V28.63H75.62Zm-10.46,0H59v-10h6.2Zm-18.06,0H35.19V45.75H47.1Z" style="fill:#fff"></path><path d="M80.13,48.14a.7.7,0,0,0-.7.71v5.7a.7.7,0,0,0,.7.7h5.7a.7.7,0,0,0,.71-.7v-5.7a.71.71,0,0,0-.71-.71Zm5,5.71h-4.3v-4.3h4.3Z" style="fill:#fff"></path><path d="M80.13,57.65a.7.7,0,0,0-.7.7v5.71a.7.7,0,0,0,.7.7h5.7a.7.7,0,0,0,.71-.7V58.35a.71.71,0,0,0-.71-.7Zm5,5.71h-4.3v-4.3h4.3Z" style="fill:#fff"></path><path d="M80.13,67.16a.7.7,0,0,0-.7.7v5.71a.7.7,0,0,0,.7.7h5.7a.7.7,0,0,0,.71-.7V67.86a.71.71,0,0,0-.71-.7Zm5,5.71h-4.3v-4.3h4.3Z" style="fill:#fff"></path><path d="M38.29,48.14a.7.7,0,0,0-.7.71v5.7a.7.7,0,0,0,.7.7H44a.7.7,0,0,0,.7-.7v-5.7a.71.71,0,0,0-.7-.71Zm5,5.71H39v-4.3h4.3Z" style="fill:#fff"></path><path d="M51.6,46.24a.71.71,0,0,0-.7.7v3.81a.7.7,0,0,0,.7.7h3.81a.7.7,0,0,0,.7-.7V46.94a.71.71,0,0,0-.7-.7ZM54.7,50H52.31V47.65H54.7Z" style="fill:#fff"></path><path d="M60.16,46.24a.7.7,0,0,0-.7.7v3.81a.7.7,0,0,0,.7.7H64a.7.7,0,0,0,.7-.7V46.94a.71.71,0,0,0-.7-.7Zm3.1,3.8h-2.4V47.65h2.4Z" style="fill:#fff"></path><path d="M68.72,46.24a.7.7,0,0,0-.7.7v3.81a.7.7,0,0,0,.7.7h3.8a.7.7,0,0,0,.71-.7V46.94a.71.71,0,0,0-.71-.7Zm3.1,3.8h-2.4V47.65h2.4Z" style="fill:#fff"></path><path d="M51.6,53.85a.7.7,0,0,0-.7.7v3.8a.71.71,0,0,0,.7.71h3.81a.71.71,0,0,0,.7-.71v-3.8a.7.7,0,0,0-.7-.7Zm3.1,3.8H52.31v-2.4H54.7Z" style="fill:#fff"></path><path d="M60.16,53.85a.7.7,0,0,0-.7.7v3.8a.7.7,0,0,0,.7.71H64a.71.71,0,0,0,.7-.71v-3.8a.7.7,0,0,0-.7-.7Zm3.1,3.8h-2.4v-2.4h2.4Z" style="fill:#fff"></path><path d="M68.72,53.85a.7.7,0,0,0-.7.7v3.8a.7.7,0,0,0,.7.71h3.8a.71.71,0,0,0,.71-.71v-3.8a.7.7,0,0,0-.71-.7Zm3.1,3.8h-2.4v-2.4h2.4Z" style="fill:#fff"></path><path d="M51.6,61.46a.7.7,0,0,0-.7.7V66a.7.7,0,0,0,.7.7h3.81a.7.7,0,0,0,.7-.7v-3.8a.7.7,0,0,0-.7-.7Zm3.1,3.8H52.31v-2.4H54.7Z" style="fill:#fff"></path><path d="M60.16,61.46a.7.7,0,0,0-.7.7V66a.7.7,0,0,0,.7.7H64a.7.7,0,0,0,.7-.7v-3.8a.7.7,0,0,0-.7-.7Zm3.1,3.8h-2.4v-2.4h2.4Z" style="fill:#fff"></path><path d="M68.72,61.46a.7.7,0,0,0-.7.7V66a.7.7,0,0,0,.7.7h3.8a.7.7,0,0,0,.71-.7v-3.8a.7.7,0,0,0-.71-.7Zm3.1,3.8h-2.4v-2.4h2.4Z" style="fill:#fff"></path><path d="M38.29,57.65a.7.7,0,0,0-.7.7v5.71a.7.7,0,0,0,.7.7H44a.7.7,0,0,0,.7-.7V58.35a.71.71,0,0,0-.7-.7Zm5,5.71H39v-4.3h4.3Z" style="fill:#fff"></path><path d="M38.29,67.16a.7.7,0,0,0-.7.7v5.71a.7.7,0,0,0,.7.7H44a.7.7,0,0,0,.7-.7V67.86a.71.71,0,0,0-.7-.7Zm5,5.71H39v-4.3h4.3Z" style="fill:#fff"></path><path d="M56.36,34.83a.71.71,0,0,0-.71.7v3.81a.71.71,0,0,0,.71.7h3.1v3.1a.7.7,0,0,0,.7.7H64a.7.7,0,0,0,.7-.7V40h3.1a.7.7,0,0,0,.7-.7V35.53a.7.7,0,0,0-.7-.7h-3.1v-3.1A.7.7,0,0,0,64,31H60.16a.7.7,0,0,0-.7.7v3.1Zm6.9,7.61h-2.4v-3.1a.7.7,0,0,0-.7-.71h-3.1V36.24h3.1a.7.7,0,0,0,.7-.71v-3.1h2.4v3.1a.71.71,0,0,0,.71.71h3.1v2.39H64a.71.71,0,0,0-.71.71Z" style="fill:#fff"></path><path d="M71.82,80h1.41V78.57H71.82Z" style="fill:#fff"></path><path d="M71.82,76.17h1.41v-1.4H71.82Z" style="fill:#fff"></path><path d="M71.82,72.37h1.41V71H71.82Z" style="fill:#fff"></path></g></g></g></svg>