<svg xmlns="http://www.w3.org/2000/svg" viewBox="0 0 125.3 117.07"><title>Asset 60-1000181112341111</title><g style="isolation:isolate"><g id="Layer_2" data-name="Layer 2"><g id="Artwork"><g style="opacity:0.2;mix-blend-mode:multiply"><path d="M125.3,60.61a16.23,16.23,0,0,1-2.17,8.11L99.92,108.93a16.29,16.29,0,0,1-14,8.11H39.43a16.29,16.29,0,0,1-14-8.11L2.17,68.72a16.27,16.27,0,0,1,0-16.23L25.38,12.28A16.29,16.29,0,0,1,39.43,4.17H85.87a16.29,16.29,0,0,1,14,8.11l23.21,40.21A16.24,16.24,0,0,1,125.3,60.61ZM3,60.61a13.28,13.28,0,0,0,1.77,6.63l23.21,40.21a13.33,13.33,0,0,0,11.49,6.64H85.87a13.33,13.33,0,0,0,11.49-6.64l23.21-40.21a13.32,13.32,0,0,0,0-13.27L97.36,13.76A13.32,13.32,0,0,0,85.87,7.13H39.43a13.32,13.32,0,0,0-11.49,6.63L4.73,54A13.29,13.29,0,0,0,3,60.61Z"></path><path d="M125.3,60.61a16.43,16.43,0,0,1-2.2,8.22l-23.1,40a16.5,16.5,0,0,1-14.25,8.22H39.55a16.5,16.5,0,0,1-14.25-8.22l-23.1-40a16.49,16.49,0,0,1,0-16.45l23.1-40A16.5,16.5,0,0,1,39.55,4.14h46.2A16.5,16.5,0,0,1,100,12.36l23.1,40A16.47,16.47,0,0,1,125.3,60.61ZM3,60.61a13.48,13.48,0,0,0,1.8,6.74l23.1,40a13.54,13.54,0,0,0,11.69,6.75h46.2a13.54,13.54,0,0,0,11.69-6.75l23.1-40a13.54,13.54,0,0,0,0-13.49l-23.1-40A13.53,13.53,0,0,0,85.75,7.1H39.55a13.53,13.53,0,0,0-11.69,6.74l-23.1,40A13.49,13.49,0,0,0,3,60.61Z"></path></g><path d="M125.3,56.47a16.23,16.23,0,0,1-2.17,8.11L99.92,104.79a16.29,16.29,0,0,1-14,8.11H39.43a16.29,16.29,0,0,1-14-8.11L2.17,64.58a16.27,16.27,0,0,1,0-16.23L25.38,8.14A16.29,16.29,0,0,1,39.43,0H85.87a16.29,16.29,0,0,1,14,8.11l23.21,40.21A16.24,16.24,0,0,1,125.3,56.47ZM3,56.47A13.28,13.28,0,0,0,4.73,63.1l23.21,40.21A13.33,13.33,0,0,0,39.43,110H85.87a13.33,13.33,0,0,0,11.49-6.64L120.57,63.1a13.32,13.32,0,0,0,0-13.27L97.36,9.62A13.32,13.32,0,0,0,85.87,3H39.43A13.32,13.32,0,0,0,27.94,9.62L4.73,49.83A13.29,13.29,0,0,0,3,56.47Z" style="fill:#fff"></path><g style="opacity:0.42;mix-blend-mode:overlay"><path d="M125.3,56.47a16.43,16.43,0,0,1-2.2,8.22l-23.1,40a16.5,16.5,0,0,1-14.25,8.22H39.55a16.5,16.5,0,0,1-14.25-8.22l-23.1-40a16.49,16.49,0,0,1,0-16.45l23.1-40A16.5,16.5,0,0,1,39.55,0h46.2A16.5,16.5,0,0,1,100,8.22l23.1,40A16.47,16.47,0,0,1,125.3,56.47ZM3,56.47a13.48,13.48,0,0,0,1.8,6.74l23.1,40A13.54,13.54,0,0,0,39.55,110h46.2a13.54,13.54,0,0,0,11.69-6.75l23.1-40a13.54,13.54,0,0,0,0-13.49l-23.1-40A13.53,13.53,0,0,0,85.75,3H39.55A13.53,13.53,0,0,0,27.86,9.7l-23.1,40A13.49,13.49,0,0,0,3,56.47Z" style="fill:#fff"></path></g><path d="M58.77,53.76H70.21V46.21h7.56V34.77H70.21V27.21H58.77v7.56H51.21V46.21h7.56Zm9.07-2.39H61.16V43.82H53.61V37.14h7.55V29.58h6.68v7.56h7.55v6.68H67.84Z" style="fill:#fff"></path><path d="M67.5,81.24h0a17.59,17.59,0,0,0,7.39-1.61l.14-.08,24-15.5a1.14,1.14,0,0,0,.37-1.52,6.57,6.57,0,0,0-8.69-2.65h0L80,64.94l-.09-.17a8.38,8.38,0,0,0-7.13-4.4L63,60.1a10.51,10.51,0,0,1-4.5-1.16l-1-.51a17.26,17.26,0,0,0-16,0l-.31.17.07-2.6A1.12,1.12,0,0,0,41,55.2a1.09,1.09,0,0,0-.79-.35l-10.66-.3a1.14,1.14,0,0,0-1.17,1.11L27.77,79a1.12,1.12,0,0,0,.31.81,1.15,1.15,0,0,0,.8.36l10.68.29a1.13,1.13,0,0,0,1.14-1.1l0-1.24,2.88-1.54a5,5,0,0,1,3.7-.41l16.53,4.64.07,0a17.2,17.2,0,0,0,3.58.37Zm0-2.27a15.62,15.62,0,0,1-3.11-.31L47.92,74a7.17,7.17,0,0,0-5.39.58l-1.72.93.39-14.22.09-.06a15,15,0,0,1,15.21-.82l1,.52A12.81,12.81,0,0,0,63,62.37l9.72.27a6.08,6.08,0,0,1,5.8,4.86l0,.26-14.74-.41a1.15,1.15,0,0,0-1.17,1.11,1.17,1.17,0,0,0,.32.81,1.12,1.12,0,0,0,.79.36l16,.44A1.14,1.14,0,0,0,80.89,69a8.07,8.07,0,0,0-.13-1.7l0-.16,10.94-5.17.12.18-.1-.19a4.33,4.33,0,0,1,4.88.68l.2.18L73.86,77.6A15.32,15.32,0,0,1,67.53,79ZM38.46,78.2,30.07,78l.59-21.11,8.38.23Z" style="fill:#fff"></path></g></g></g></svg>