<svg xmlns="http://www.w3.org/2000/svg" viewBox="0 0 125.3 117.07"><title>Asset 58-1000181112341111</title><g style="isolation:isolate"><g id="Layer_2" data-name="Layer 2"><g id="Artwork"><g style="opacity:0.2;mix-blend-mode:multiply"><path d="M125.3,60.61a16.23,16.23,0,0,1-2.17,8.11L99.92,108.93a16.29,16.29,0,0,1-14,8.11H39.43a16.29,16.29,0,0,1-14-8.11L2.17,68.72a16.27,16.27,0,0,1,0-16.23L25.38,12.28A16.29,16.29,0,0,1,39.43,4.17H85.87a16.29,16.29,0,0,1,14,8.11l23.21,40.21A16.24,16.24,0,0,1,125.3,60.61ZM3,60.61a13.28,13.28,0,0,0,1.77,6.63l23.21,40.21a13.33,13.33,0,0,0,11.49,6.64H85.87a13.33,13.33,0,0,0,11.49-6.64l23.21-40.21a13.32,13.32,0,0,0,0-13.27L97.36,13.76A13.32,13.32,0,0,0,85.87,7.13H39.43a13.32,13.32,0,0,0-11.49,6.63L4.73,54A13.29,13.29,0,0,0,3,60.61Z"></path><path d="M125.3,60.61a16.43,16.43,0,0,1-2.2,8.22l-23.1,40a16.5,16.5,0,0,1-14.25,8.22H39.55a16.5,16.5,0,0,1-14.25-8.22l-23.1-40a16.49,16.49,0,0,1,0-16.45l23.1-40A16.5,16.5,0,0,1,39.55,4.14h46.2A16.5,16.5,0,0,1,100,12.36l23.1,40A16.47,16.47,0,0,1,125.3,60.61ZM3,60.61a13.48,13.48,0,0,0,1.8,6.74l23.1,40a13.54,13.54,0,0,0,11.69,6.75h46.2a13.54,13.54,0,0,0,11.69-6.75l23.1-40a13.54,13.54,0,0,0,0-13.49l-23.1-40A13.53,13.53,0,0,0,85.75,7.1H39.55a13.53,13.53,0,0,0-11.69,6.74l-23.1,40A13.49,13.49,0,0,0,3,60.61Z"></path></g><path d="M125.3,56.47a16.23,16.23,0,0,1-2.17,8.11L99.92,104.79a16.29,16.29,0,0,1-14,8.11H39.43a16.29,16.29,0,0,1-14-8.11L2.17,64.58a16.27,16.27,0,0,1,0-16.23L25.38,8.14A16.29,16.29,0,0,1,39.43,0H85.87a16.29,16.29,0,0,1,14,8.11l23.21,40.21A16.24,16.24,0,0,1,125.3,56.47ZM3,56.47A13.28,13.28,0,0,0,4.73,63.1l23.21,40.21A13.33,13.33,0,0,0,39.43,110H85.87a13.33,13.33,0,0,0,11.49-6.64L120.57,63.1a13.32,13.32,0,0,0,0-13.27L97.36,9.62A13.32,13.32,0,0,0,85.87,3H39.43A13.32,13.32,0,0,0,27.94,9.62L4.73,49.83A13.29,13.29,0,0,0,3,56.47Z" style="fill:#fff"></path><g style="opacity:0.42;mix-blend-mode:overlay"><path d="M125.3,56.47a16.43,16.43,0,0,1-2.2,8.22l-23.1,40a16.5,16.5,0,0,1-14.25,8.22H39.55a16.5,16.5,0,0,1-14.25-8.22l-23.1-40a16.49,16.49,0,0,1,0-16.45l23.1-40A16.5,16.5,0,0,1,39.55,0h46.2A16.5,16.5,0,0,1,100,8.22l23.1,40A16.47,16.47,0,0,1,125.3,56.47ZM3,56.47a13.48,13.48,0,0,0,1.8,6.74l23.1,40A13.54,13.54,0,0,0,39.55,110h46.2a13.54,13.54,0,0,0,11.69-6.75l23.1-40a13.54,13.54,0,0,0,0-13.49l-23.1-40A13.53,13.53,0,0,0,85.75,3H39.55A13.53,13.53,0,0,0,27.86,9.7l-23.1,40A13.49,13.49,0,0,0,3,56.47Z" style="fill:#fff"></path></g><path d="M87.21,55.55H75.3V50a4.24,4.24,0,0,0-4.23-4.24H69.73V35.57a7,7,0,1,0-14,0V45.72H54.36A4.24,4.24,0,0,0,50.13,50v5.59a.81.81,0,0,0,.81.81.82.82,0,0,0,.82-.81V50a2.61,2.61,0,0,1,2.6-2.61h3.53c1.29,1.49,4.18,4.78,4.21,4.82a.82.82,0,0,0,1.23,0s2.92-3.33,4.21-4.82h3.53A2.61,2.61,0,0,1,73.67,50v5.59H71.19V52.39a.82.82,0,0,0-1.64,0v3.16H55.88V52.39a.82.82,0,0,0-1.64,0v3.16H51.76V54.44a.82.82,0,0,0-.82-.81.81.81,0,0,0-.81.81v1.11H38.08A1.44,1.44,0,0,0,36.65,57v2.58a1.44,1.44,0,0,0,1.05,1.38V83a.82.82,0,0,0,.81.82H86.78A.82.82,0,0,0,87.6,83V60.94a1.44,1.44,0,0,0,1.05-1.38V57A1.44,1.44,0,0,0,87.21,55.55ZM66.44,45.72V44.49A6.75,6.75,0,0,0,68.1,42.7v3Zm-6.08-2.25-.18-.12a4.24,4.24,0,0,1-2-2.94l-.13-1.8a4.09,4.09,0,0,0,1.5.12c2.51-.15,4.56-1.95,5.86-3.85a9.15,9.15,0,0,0,1.92,2.45l0,0-.22,3a4.24,4.24,0,0,1-2,2.94l-.18.12a4.71,4.71,0,0,1-2.36.88A4.71,4.71,0,0,1,60.36,43.47Zm-1.58-12a5.4,5.4,0,0,1,9.32,4.16v.16a8.16,8.16,0,0,1-1.77-2.92.82.82,0,0,0-.72-.54.84.84,0,0,0-.78.46c-.94,1.92-2.89,4.22-5.32,4.36a4.21,4.21,0,0,1-.5,0,1.74,1.74,0,0,1-1.21-.53.18.18,0,0,0,0-.07,1.61,1.61,0,0,1-.41-1A5.3,5.3,0,0,1,58.78,31.42ZM57.33,42.7A6.75,6.75,0,0,0,59,44.49v1.23H57.33Zm5.38,7.69-2.79-3.18a1.32,1.32,0,0,0,.71-1.16v-.59a4.37,4.37,0,0,0,4.17,0v.59a1.32,1.32,0,0,0,.71,1.16ZM39.33,82.19V61H86.6a.81.81,0,0,0,.82-.81.82.82,0,0,0-.82-.82H38.29V57.18H87v2.18H82a.82.82,0,0,0-.82.82A.82.82,0,0,0,82,61h4v21.2Z" style="fill:#fff"></path><path d="M46,68.53H57.85a1.05,1.05,0,0,0,1.06-1.06V65A1.07,1.07,0,0,0,57.85,64H46A1.07,1.07,0,0,0,45,65v2.43A1.06,1.06,0,0,0,46,68.53Zm.56-2.93h10.7v1.3H46.58Z" style="fill:#fff"></path><path d="M61.06,70.27H42.81a1.07,1.07,0,0,0-1.07,1.07v2.43a1.07,1.07,0,0,0,1.07,1.07H54a.82.82,0,0,0,0-1.64H43.37V71.91H60.49V73.2H57.78a.82.82,0,1,0,0,1.64h3.28a1.06,1.06,0,0,0,1.06-1.07V71.34A1.06,1.06,0,0,0,61.06,70.27Z" style="fill:#fff"></path><path d="M82.42,68.08h-3v-3A1.14,1.14,0,0,0,78.31,64H73.56a1.14,1.14,0,0,0-1.14,1.14v3h-3a1.14,1.14,0,0,0-1.14,1.14V74a1.14,1.14,0,0,0,1.14,1.14h3v3a1.14,1.14,0,0,0,1.14,1.14h4.75a1.14,1.14,0,0,0,1.14-1.14v-3h3A1.14,1.14,0,0,0,83.56,74V69.22A1.14,1.14,0,0,0,82.42,68.08Zm-.49,5.39H79a1.14,1.14,0,0,0-1.14,1.14v3H74.05v-3a1.15,1.15,0,0,0-1.14-1.14h-3V69.71h3a1.14,1.14,0,0,0,1.14-1.14v-3h3.77v3A1.14,1.14,0,0,0,79,69.71h3Z" style="fill:#fff"></path></g></g></g></svg>