<svg xmlns="http://www.w3.org/2000/svg" viewBox="0 0 125.3 117.07"><title>Asset 56-1000181112341111</title><g style="isolation:isolate"><g id="Layer_2" data-name="Layer 2"><g id="Artwork"><g style="opacity:0.2;mix-blend-mode:multiply"><path d="M125.3,60.61a16.23,16.23,0,0,1-2.17,8.11L99.92,108.93a16.29,16.29,0,0,1-14,8.11H39.43a16.29,16.29,0,0,1-14-8.11L2.17,68.72a16.27,16.27,0,0,1,0-16.23L25.38,12.28A16.29,16.29,0,0,1,39.43,4.17H85.87a16.29,16.29,0,0,1,14,8.11l23.21,40.21A16.24,16.24,0,0,1,125.3,60.61ZM3,60.61a13.28,13.28,0,0,0,1.77,6.63l23.21,40.21a13.33,13.33,0,0,0,11.49,6.64H85.87a13.33,13.33,0,0,0,11.49-6.64l23.21-40.21a13.32,13.32,0,0,0,0-13.27L97.36,13.76A13.32,13.32,0,0,0,85.87,7.13H39.43a13.32,13.32,0,0,0-11.49,6.63L4.73,54A13.29,13.29,0,0,0,3,60.61Z"></path><path d="M125.3,60.61a16.43,16.43,0,0,1-2.2,8.22l-23.1,40a16.5,16.5,0,0,1-14.25,8.22H39.55a16.5,16.5,0,0,1-14.25-8.22l-23.1-40a16.49,16.49,0,0,1,0-16.45l23.1-40A16.5,16.5,0,0,1,39.55,4.14h46.2A16.5,16.5,0,0,1,100,12.36l23.1,40A16.47,16.47,0,0,1,125.3,60.61ZM3,60.61a13.48,13.48,0,0,0,1.8,6.74l23.1,40a13.54,13.54,0,0,0,11.69,6.75h46.2a13.54,13.54,0,0,0,11.69-6.75l23.1-40a13.54,13.54,0,0,0,0-13.49l-23.1-40A13.53,13.53,0,0,0,85.75,7.1H39.55a13.53,13.53,0,0,0-11.69,6.74l-23.1,40A13.49,13.49,0,0,0,3,60.61Z"></path></g><path d="M125.3,56.47a16.23,16.23,0,0,1-2.17,8.11L99.92,104.79a16.29,16.29,0,0,1-14,8.11H39.43a16.29,16.29,0,0,1-14-8.11L2.17,64.58a16.27,16.27,0,0,1,0-16.23L25.38,8.14A16.29,16.29,0,0,1,39.43,0H85.87a16.29,16.29,0,0,1,14,8.11l23.21,40.21A16.24,16.24,0,0,1,125.3,56.47ZM3,56.47A13.28,13.28,0,0,0,4.73,63.1l23.21,40.21A13.33,13.33,0,0,0,39.43,110H85.87a13.33,13.33,0,0,0,11.49-6.64L120.57,63.1a13.32,13.32,0,0,0,0-13.27L97.36,9.62A13.32,13.32,0,0,0,85.87,3H39.43A13.32,13.32,0,0,0,27.94,9.62L4.73,49.83A13.29,13.29,0,0,0,3,56.47Z" style="fill:#fff"></path><g style="opacity:0.42;mix-blend-mode:overlay"><path d="M125.3,56.47a16.43,16.43,0,0,1-2.2,8.22l-23.1,40a16.5,16.5,0,0,1-14.25,8.22H39.55a16.5,16.5,0,0,1-14.25-8.22l-23.1-40a16.49,16.49,0,0,1,0-16.45l23.1-40A16.5,16.5,0,0,1,39.55,0h46.2A16.5,16.5,0,0,1,100,8.22l23.1,40A16.47,16.47,0,0,1,125.3,56.47ZM3,56.47a13.48,13.48,0,0,0,1.8,6.74l23.1,40A13.54,13.54,0,0,0,39.55,110h46.2a13.54,13.54,0,0,0,11.69-6.75l23.1-40a13.54,13.54,0,0,0,0-13.49l-23.1-40A13.53,13.53,0,0,0,85.75,3H39.55A13.53,13.53,0,0,0,27.86,9.7l-23.1,40A13.49,13.49,0,0,0,3,56.47Z" style="fill:#fff"></path></g><path d="M35.32,44.44l-1.38.77a.91.91,0,0,1-.89-1.59L62.28,27.26a.89.89,0,0,1,.89,0L92.34,43.75a.91.91,0,0,1-.9,1.58l-1.38-.77L90,82h1.82a.92.92,0,0,1,0,1.83l-58.4-.13a.91.91,0,1,1,0-1.82h1.83Zm52.92-.91L62.72,29.1,37.14,43.42l-.08,38.42h4.57l0-19.17a.91.91,0,0,1,.91-.91l9.12,0,0-19.16a.91.91,0,0,1,.91-.91l20.07,0a.9.9,0,0,1,.91.92l0,19.16,9.13,0a.91.91,0,0,1,.91.91l0,19.16h4.56ZM59.94,50.3l2.33-1.16a.91.91,0,0,1,.82,0l2.33,1.17V43.57H60Zm-1.81-6.74H53.57l0,18.25,18.25,0,0-18.24H67.25v8.21a.91.91,0,0,1-1.32.81L62.68,51l-3.25,1.62a.91.91,0,0,1-1.32-.82ZM70,63.66v6.73l2.33-1.16a.89.89,0,0,1,.81,0l2.33,1.17V63.67Zm-1.82,0H63.56l0,18.25,18.25,0,0-18.25H77.25l0,8.21a.91.91,0,0,1-1.32.82l-3.24-1.63-3.24,1.61a.91.91,0,0,1-1.32-.82Zm-18.25,0,0,6.74,2.33-1.16a.91.91,0,0,1,.82,0l2.33,1.17V63.63Zm-1.83,0H43.49l0,18.25,18.25,0,0-18.25H57.18l0,8.21a.91.91,0,0,1-1.32.81L52.6,71l-3.25,1.61A.92.92,0,0,1,48,71.82Z" style="fill:#fff;fill-rule:evenodd"></path></g></g></g></svg>